<svg width="16" height="16" viewBox="0 0 16 16" fill="none" xmlns="http://www.w3.org/2000/svg">
<path d="M1.615 16C1.155 16 0.771 15.846 0.463 15.538C0.154333 15.2293 0 14.845 0 14.385V1.615C0 1.155 0.154333 0.771 0.463 0.463C0.771 0.154333 1.155 0 1.615 0H8.019V1H1.615C1.46167 1 1.32067 1.064 1.192 1.192C1.064 1.32067 1 1.46167 1 1.615V14.385C1 14.5383 1.064 14.6793 1.192 14.808C1.32067 14.936 1.46167 15 1.615 15H8.019V16H1.615ZM12.462 11.538L11.76 10.819L14.079 8.5H5.192V7.5H14.079L11.759 5.18L12.462 4.462L16 8L12.462 11.538Z" fill="#00194E"/>
</svg>
