<svg width="140" height="26" viewBox="0 0 140 26" fill="none" xmlns="http://www.w3.org/2000/svg">
<rect x="0.5" y="0.5" width="139" height="25" rx="12.5" stroke="#70B3F1"/>
<path d="M19.679 10.1847H17.4631C17.3778 9.71117 17.2192 9.29451 16.9872 8.93466C16.7552 8.57481 16.4711 8.26941 16.1349 8.01847C15.7988 7.76752 15.4223 7.57812 15.0057 7.45028C14.5938 7.32244 14.1558 7.25852 13.6918 7.25852C12.8537 7.25852 12.1032 7.46922 11.4403 7.89062C10.7822 8.31203 10.2614 8.92992 9.87784 9.74432C9.49905 10.5587 9.30966 11.553 9.30966 12.7273C9.30966 13.911 9.49905 14.91 9.87784 15.7244C10.2614 16.5388 10.7846 17.1544 11.4474 17.571C12.1103 17.9877 12.8561 18.196 13.6847 18.196C14.1439 18.196 14.5795 18.1345 14.9915 18.0114C15.4081 17.8835 15.7846 17.6965 16.1207 17.4503C16.4569 17.2041 16.741 16.9034 16.973 16.5483C17.2098 16.1884 17.3731 15.7765 17.4631 15.3125L19.679 15.3196C19.5606 16.0346 19.331 16.6927 18.9901 17.294C18.6539 17.8906 18.2206 18.4067 17.6903 18.8423C17.1648 19.2732 16.5634 19.607 15.8864 19.8438C15.2093 20.0805 14.4706 20.1989 13.6705 20.1989C12.411 20.1989 11.2888 19.9006 10.304 19.304C9.31913 18.7027 8.54261 17.8433 7.97443 16.7259C7.41098 15.6084 7.12926 14.2756 7.12926 12.7273C7.12926 11.1742 7.41335 9.84138 7.98153 8.72869C8.54972 7.61127 9.32623 6.75426 10.3111 6.15767C11.2959 5.55634 12.4157 5.25568 13.6705 5.25568C14.4422 5.25568 15.1619 5.36695 15.8295 5.58949C16.5019 5.80729 17.1056 6.12926 17.6406 6.5554C18.1757 6.9768 18.6184 7.4929 18.9688 8.10369C19.3191 8.70975 19.5559 9.40341 19.679 10.1847ZM22.1346 20V9.09091H24.2582V13.6648H25.2809L28.8817 9.09091H31.5096L27.2837 14.3963L31.5593 20H28.9244L25.636 15.6392H24.2582V20H22.1346ZM33.2088 24.0909V9.09091H35.2827V10.8594H35.4602C35.5833 10.6321 35.7609 10.3693 35.9929 10.071C36.2249 9.77273 36.5469 9.51231 36.9588 9.28977C37.3707 9.0625 37.9152 8.94886 38.5923 8.94886C39.473 8.94886 40.259 9.1714 40.9503 9.61648C41.6416 10.0616 42.1837 10.7031 42.5767 11.5412C42.9744 12.3793 43.1733 13.3878 43.1733 14.5668C43.1733 15.7457 42.9768 16.7566 42.5838 17.5994C42.1908 18.4375 41.651 19.0838 40.9645 19.5384C40.2779 19.9882 39.4943 20.2131 38.6136 20.2131C37.9508 20.2131 37.4086 20.1018 36.9872 19.8793C36.5705 19.6567 36.2438 19.3963 36.0071 19.098C35.7704 18.7997 35.5881 18.5346 35.4602 18.3026H35.3324V24.0909H33.2088ZM35.2898 14.5455C35.2898 15.3125 35.401 15.9848 35.6236 16.5625C35.8461 17.1402 36.1681 17.5923 36.5895 17.919C37.0109 18.241 37.527 18.402 38.1378 18.402C38.7723 18.402 39.3026 18.2339 39.7287 17.8977C40.1548 17.5568 40.4768 17.0952 40.6946 16.5128C40.9171 15.9304 41.0284 15.2746 41.0284 14.5455C41.0284 13.8258 40.9195 13.1795 40.7017 12.6065C40.4886 12.0336 40.1667 11.5814 39.7358 11.25C39.3097 10.9186 38.777 10.7528 38.1378 10.7528C37.5223 10.7528 37.0014 10.9115 36.5753 11.2287C36.1539 11.5459 35.8343 11.9886 35.6165 12.5568C35.3987 13.125 35.2898 13.7879 35.2898 14.5455ZM47.1506 12.8409H50.3182C51.6534 12.8409 52.6809 13.1723 53.4006 13.8352C54.1203 14.4981 54.4801 15.3527 54.4801 16.3991C54.4801 17.081 54.3191 17.6941 53.9972 18.2386C53.6752 18.7831 53.2041 19.214 52.5838 19.5312C51.9635 19.8438 51.2083 20 50.3182 20H45.5526V9.09091H47.6335V18.1676H50.3182C50.929 18.1676 51.4309 18.009 51.8239 17.6918C52.2169 17.3698 52.4134 16.9602 52.4134 16.4631C52.4134 15.9375 52.2169 15.509 51.8239 15.1776C51.4309 14.8414 50.929 14.6733 50.3182 14.6733H47.1506V12.8409ZM56.0284 20V9.09091H58.152V20H56.0284ZM60.391 10.9233V9.09091H69.5955V10.9233H66.0373V20H63.9634V10.9233H60.391ZM73.4396 12.8409H76.6072C77.9425 12.8409 78.9699 13.1723 79.6896 13.8352C80.4093 14.4981 80.7692 15.3527 80.7692 16.3991C80.7692 17.081 80.6082 17.6941 80.2862 18.2386C79.9643 18.7831 79.4931 19.214 78.8729 19.5312C78.2526 19.8438 77.4974 20 76.6072 20H71.8416V9.09091H73.9226V18.1676H76.6072C77.218 18.1676 77.7199 18.009 78.1129 17.6918C78.5059 17.3698 78.7024 16.9602 78.7024 16.4631C78.7024 15.9375 78.5059 15.509 78.1129 15.1776C77.7199 14.8414 77.218 14.6733 76.6072 14.6733H73.4396V12.8409ZM97.3423 9.09091V18.2599H98.9403V23.5156H96.8452V20H88.4432V9.09091H90.5241V18.1676H95.2685V9.09091H97.3423ZM105.879 20.2202C104.804 20.2202 103.879 19.9905 103.102 19.5312C102.33 19.0672 101.734 18.4162 101.312 17.5781C100.896 16.7353 100.688 15.7481 100.688 14.6165C100.688 13.4991 100.896 12.5142 101.312 11.6619C101.734 10.8097 102.321 10.1444 103.074 9.66619C103.831 9.18797 104.717 8.94886 105.73 8.94886C106.346 8.94886 106.942 9.05066 107.52 9.25426C108.098 9.45786 108.616 9.77746 109.075 10.2131C109.535 10.6487 109.897 11.2145 110.162 11.9105C110.427 12.6018 110.56 13.4422 110.56 14.4318V15.1847H101.888V13.5938H108.479C108.479 13.035 108.365 12.5402 108.138 12.1094C107.911 11.6738 107.591 11.3305 107.179 11.0795C106.772 10.8286 106.294 10.7031 105.744 10.7031C105.148 10.7031 104.627 10.8499 104.182 11.1435C103.741 11.4323 103.401 11.8111 103.159 12.2798C102.922 12.7438 102.804 13.2481 102.804 13.7926V15.0355C102.804 15.7647 102.932 16.3849 103.188 16.8963C103.448 17.4077 103.81 17.7983 104.274 18.0682C104.738 18.3333 105.28 18.4659 105.901 18.4659C106.303 18.4659 106.67 18.4091 107.001 18.2955C107.333 18.1771 107.619 18.0019 107.861 17.7699C108.102 17.5379 108.287 17.2514 108.415 16.9105L110.425 17.2727C110.264 17.8646 109.975 18.383 109.558 18.8281C109.146 19.2685 108.628 19.6117 108.003 19.858C107.383 20.0994 106.675 20.2202 105.879 20.2202ZM120.309 13.6293V15.4688H114.4V13.6293H120.309ZM114.997 9.09091V20H112.916V9.09091H114.997ZM121.794 9.09091V20H119.72V9.09091H121.794ZM125.586 24.0909C125.269 24.0909 124.98 24.0649 124.72 24.0128C124.459 23.9654 124.265 23.9134 124.137 23.8565L124.649 22.1165C125.037 22.2206 125.383 22.2656 125.686 22.2514C125.989 22.2372 126.256 22.1236 126.488 21.9105C126.725 21.6974 126.933 21.3494 127.113 20.8665L127.376 20.142L123.385 9.09091H125.657L128.42 17.5568H128.534L131.297 9.09091H133.576L129.081 21.456C128.872 22.0241 128.607 22.5047 128.285 22.8977C127.963 23.2955 127.58 23.5938 127.135 23.7926C126.69 23.9915 126.173 24.0909 125.586 24.0909Z" fill="#70B3F1"/>
</svg>
