<svg width="28" height="28" viewBox="0 0 28 28" fill="none" xmlns="http://www.w3.org/2000/svg">
<g filter="url(#filter0_d_39_3)">
<path fill-rule="evenodd" clip-rule="evenodd" d="M14 0C11.3478 0 8.8043 1.05357 6.92893 2.92893C5.05357 4.8043 4 7.34784 4 10C4 12.6522 5.05357 15.1957 6.92893 17.0711C8.8043 18.9464 11.3478 20 14 20C16.6522 20 19.1957 18.9464 21.0711 17.0711C22.9464 15.1957 24 12.6522 24 10C24 7.34784 22.9464 4.8043 21.0711 2.92893C19.1957 1.05357 16.6522 0 14 0ZM5.4344 10C5.4344 7.72826 6.33684 5.54957 7.9432 3.9432C9.54957 2.33684 11.7283 1.4344 14 1.4344C16.2717 1.4344 18.4504 2.33684 20.0568 3.9432C21.6632 5.54957 22.5656 7.72826 22.5656 10C22.5656 12.2717 21.6632 14.4504 20.0568 16.0568C18.4504 17.6632 16.2717 18.5656 14 18.5656C11.7283 18.5656 9.54957 17.6632 7.9432 16.0568C6.33684 14.4504 5.4344 12.2717 5.4344 10ZM14 4.71539C14.2002 4.71539 14.3922 4.79492 14.5338 4.9365C14.6754 5.07808 14.7549 5.27011 14.7549 5.47033V9.24506H18.5297C18.7299 9.24506 18.9219 9.32459 19.0635 9.46617C19.2051 9.60775 19.2846 9.79978 19.2846 10C19.2846 10.2002 19.2051 10.3922 19.0635 10.5338C18.9219 10.6754 18.7299 10.7549 18.5297 10.7549H14.7549V14.5297C14.7549 14.7299 14.6754 14.9219 14.5338 15.0635C14.3922 15.2051 14.2002 15.2846 14 15.2846C13.7998 15.2846 13.6078 15.2051 13.4662 15.0635C13.3246 14.9219 13.2451 14.7299 13.2451 14.5297V10.7549H9.47033C9.27011 10.7549 9.07808 10.6754 8.9365 10.5338C8.79492 10.3922 8.71539 10.2002 8.71539 10C8.71539 9.79978 8.79492 9.60775 8.9365 9.46617C9.07808 9.32459 9.27011 9.24506 9.47033 9.24506H13.2451V5.47033C13.2451 5.27011 13.3246 5.07808 13.4662 4.9365C13.6078 4.79492 13.7998 4.71539 14 4.71539Z" fill="#6699CC"/>
</g>
<defs>
<filter id="filter0_d_39_3" x="0" y="0" width="28" height="28" filterUnits="userSpaceOnUse" color-interpolation-filters="sRGB">
<feFlood flood-opacity="0" result="BackgroundImageFix"/>
<feColorMatrix in="SourceAlpha" type="matrix" values="0 0 0 0 0 0 0 0 0 0 0 0 0 0 0 0 0 0 127 0" result="hardAlpha"/>
<feOffset dy="4"/>
<feGaussianBlur stdDeviation="2"/>
<feComposite in2="hardAlpha" operator="out"/>
<feColorMatrix type="matrix" values="0 0 0 0 0 0 0 0 0 0 0 0 0 0 0 0 0 0 0.25 0"/>
<feBlend mode="normal" in2="BackgroundImageFix" result="effect1_dropShadow_39_3"/>
<feBlend mode="normal" in="SourceGraphic" in2="effect1_dropShadow_39_3" result="shape"/>
</filter>
</defs>
</svg>
