<svg width="140" height="26" viewBox="0 0 140 26" fill="none" xmlns="http://www.w3.org/2000/svg">
<rect x="0.5" y="0.5" width="139" height="25" rx="12.5" stroke="#70B3F1"/>
<path d="M12.6278 20.1989V18.267H13.5014C13.866 18.267 14.1667 18.2055 14.4034 18.0824C14.6449 17.9593 14.8414 17.7936 14.9929 17.5852C15.1491 17.3722 15.2794 17.1402 15.3835 16.8892L15.5895 16.3707L10.4759 5.45455H12.8054L16.6193 13.8636L20.0142 5.45455H22.3153L17.2869 17.4787C17.0739 17.9616 16.8277 18.4091 16.5483 18.821C16.2737 19.233 15.9067 19.5668 15.4474 19.8224C14.9882 20.0734 14.3797 20.1989 13.6222 20.1989H12.6278ZM23.5742 17.1165H25.7475C25.7759 17.5616 25.9772 17.9048 26.3512 18.1463C26.73 18.3878 27.2201 18.5085 27.8214 18.5085C28.4322 18.5085 28.953 18.3783 29.3839 18.1179C29.8147 17.8527 30.0302 17.4432 30.0302 16.8892C30.0302 16.5578 29.9473 16.2689 29.7816 16.0227C29.6206 15.7718 29.391 15.5777 29.0927 15.4403C28.7991 15.303 28.4511 15.2344 28.0487 15.2344H26.2731V13.5653H28.0487C28.65 13.5653 29.0998 13.428 29.3981 13.1534C29.6964 12.8788 29.8455 12.5355 29.8455 12.1236C29.8455 11.6785 29.6845 11.321 29.3626 11.0511C29.0453 10.7765 28.6026 10.6392 28.0344 10.6392C27.4568 10.6392 26.9762 10.7694 26.5927 11.0298C26.2092 11.2855 26.0079 11.617 25.989 12.0241H23.8441C23.8583 11.4134 24.043 10.8783 24.3981 10.419C24.7579 9.95502 25.2409 9.59517 25.8469 9.33949C26.4577 9.07907 27.1514 8.94886 27.9279 8.94886C28.7376 8.94886 29.4383 9.07907 30.0302 9.33949C30.622 9.59991 31.079 9.95975 31.4009 10.419C31.7276 10.8783 31.891 11.4062 31.891 12.0028C31.891 12.6042 31.7111 13.0966 31.3512 13.4801C30.9961 13.8589 30.5321 14.1312 29.9592 14.2969V14.4105C30.3806 14.4389 30.7546 14.5668 31.0813 14.794C31.408 15.0213 31.6637 15.322 31.8484 15.696C32.033 16.0701 32.1254 16.4938 32.1254 16.9673C32.1254 17.6349 31.9407 18.2126 31.5714 18.7003C31.2068 19.188 30.7002 19.5644 30.0515 19.8295C29.4076 20.09 28.6713 20.2202 27.8427 20.2202C27.0378 20.2202 26.3157 20.0947 25.6765 19.8438C25.042 19.5881 24.5378 19.2282 24.1637 18.7642C23.7944 18.3002 23.5979 17.7509 23.5742 17.1165ZM41.7116 13.6293V15.4688H35.8026V13.6293H41.7116ZM36.3991 9.09091V20H34.3182V9.09091H36.3991ZM43.196 9.09091V20H41.1222V9.09091H43.196ZM49.2116 20.2415C48.5204 20.2415 47.8954 20.1136 47.3366 19.858C46.7779 19.5975 46.3352 19.2211 46.0085 18.7287C45.6866 18.2363 45.5256 17.6326 45.5256 16.9176C45.5256 16.3021 45.6439 15.7955 45.8807 15.3977C46.1174 15 46.437 14.6851 46.8395 14.4531C47.242 14.2211 47.6918 14.0459 48.1889 13.9276C48.6861 13.8092 49.1927 13.7192 49.7088 13.6577C50.3622 13.5819 50.8925 13.5204 51.2997 13.473C51.7069 13.4209 52.0028 13.3381 52.1875 13.2244C52.3722 13.1108 52.4645 12.9261 52.4645 12.6705V12.6207C52.4645 12.0005 52.2893 11.5199 51.9389 11.179C51.5933 10.8381 51.0772 10.6676 50.3906 10.6676C49.6757 10.6676 49.1122 10.8262 48.7003 11.1435C48.2931 11.456 48.0114 11.804 47.8551 12.1875L45.8594 11.733C46.0961 11.0701 46.4418 10.535 46.8963 10.1278C47.3556 9.71591 47.8835 9.41761 48.4801 9.23295C49.0767 9.04356 49.7041 8.94886 50.3622 8.94886C50.7978 8.94886 51.2595 9.00095 51.7472 9.10511C52.2396 9.20455 52.6989 9.3892 53.125 9.65909C53.5559 9.92898 53.9086 10.3149 54.1832 10.8168C54.4579 11.3139 54.5952 11.9602 54.5952 12.7557V20H52.5213V18.5085H52.4361C52.2988 18.7831 52.0928 19.053 51.8182 19.3182C51.5436 19.5833 51.1908 19.8035 50.7599 19.9787C50.3291 20.1539 49.813 20.2415 49.2116 20.2415ZM49.6733 18.5369C50.2604 18.5369 50.7623 18.4209 51.179 18.1889C51.6004 17.9569 51.92 17.6539 52.1378 17.2798C52.3603 16.901 52.4716 16.4962 52.4716 16.0653V14.6591C52.3958 14.7348 52.2491 14.8059 52.0312 14.8722C51.8182 14.9337 51.5743 14.9882 51.2997 15.0355C51.0251 15.0781 50.7576 15.1184 50.4972 15.1562C50.2367 15.1894 50.0189 15.2178 49.8438 15.2415C49.4318 15.2936 49.0554 15.3812 48.7145 15.5043C48.3783 15.6274 48.1084 15.8049 47.9048 16.0369C47.706 16.2642 47.6065 16.5672 47.6065 16.946C47.6065 17.4716 47.8007 17.8693 48.1889 18.1392C48.5772 18.4044 49.072 18.5369 49.6733 18.5369ZM56.0707 10.9233V9.09091H65.2752V10.9233H61.717V20H59.6431V10.9233H56.0707ZM69.1193 12.8409H72.2869C73.6222 12.8409 74.6496 13.1723 75.3693 13.8352C76.089 14.4981 76.4489 15.3527 76.4489 16.3991C76.4489 17.081 76.2879 17.6941 75.9659 18.2386C75.6439 18.7831 75.1728 19.214 74.5526 19.5312C73.9323 19.8438 73.1771 20 72.2869 20H67.5213V9.09091H69.6023V18.1676H72.2869C72.8977 18.1676 73.3996 18.009 73.7926 17.6918C74.1856 17.3698 74.3821 16.9602 74.3821 16.4631C74.3821 15.9375 74.1856 15.509 73.7926 15.1776C73.3996 14.8414 72.8977 14.6733 72.2869 14.6733H69.1193V12.8409ZM93.022 9.09091V18.2599H94.62V23.5156H92.5249V20H84.1229V9.09091H86.2038V18.1676H90.9482V9.09091H93.022ZM101.559 20.2202C100.484 20.2202 99.5585 19.9905 98.782 19.5312C98.0102 19.0672 97.4136 18.4162 96.9922 17.5781C96.5755 16.7353 96.3672 15.7481 96.3672 14.6165C96.3672 13.4991 96.5755 12.5142 96.9922 11.6619C97.4136 10.8097 98.0007 10.1444 98.7536 9.66619C99.5111 9.18797 100.397 8.94886 101.41 8.94886C102.025 8.94886 102.622 9.05066 103.2 9.25426C103.777 9.45786 104.296 9.77746 104.755 10.2131C105.214 10.6487 105.576 11.2145 105.842 11.9105C106.107 12.6018 106.239 13.4422 106.239 14.4318V15.1847H97.5675V13.5938H104.158C104.158 13.035 104.045 12.5402 103.817 12.1094C103.59 11.6738 103.271 11.3305 102.859 11.0795C102.451 10.8286 101.973 10.7031 101.424 10.7031C100.827 10.7031 100.307 10.8499 99.8615 11.1435C99.4212 11.4323 99.0803 11.8111 98.8388 12.2798C98.602 12.7438 98.4837 13.2481 98.4837 13.7926V15.0355C98.4837 15.7647 98.6115 16.3849 98.8672 16.8963C99.1276 17.4077 99.4898 17.7983 99.9538 18.0682C100.418 18.3333 100.96 18.4659 101.58 18.4659C101.983 18.4659 102.35 18.4091 102.681 18.2955C103.013 18.1771 103.299 18.0019 103.54 17.7699C103.782 17.5379 103.967 17.2514 104.094 16.9105L106.104 17.2727C105.943 17.8646 105.655 18.383 105.238 18.8281C104.826 19.2685 104.308 19.6117 103.683 19.858C103.062 20.0994 102.354 20.2202 101.559 20.2202ZM115.989 13.6293V15.4688H110.08V13.6293H115.989ZM110.676 9.09091V20H108.596V9.09091H110.676ZM117.473 9.09091V20H115.4V9.09091H117.473ZM121.266 24.0909C120.949 24.0909 120.66 24.0649 120.4 24.0128C120.139 23.9654 119.945 23.9134 119.817 23.8565L120.328 22.1165C120.717 22.2206 121.062 22.2656 121.365 22.2514C121.668 22.2372 121.936 22.1236 122.168 21.9105C122.405 21.6974 122.613 21.3494 122.793 20.8665L123.056 20.142L119.064 9.09091H121.337L124.1 17.5568H124.213L126.976 9.09091H129.256L124.76 21.456C124.552 22.0241 124.287 22.5047 123.965 22.8977C123.643 23.2955 123.259 23.5938 122.814 23.7926C122.369 23.9915 121.853 24.0909 121.266 24.0909Z" fill="#70B3F1"/>
</svg>
